<svg width="42" height="43" viewBox="0 0 42 43" fill="none" xmlns="http://www.w3.org/2000/svg">
<path d="M33.4047 1.27841H41.5089V42.0624H33.4047V1.27841ZM0.989746 17.1842C0.989746 13.7039 1.88115 10.7131 3.66405 8.21171C5.44685 5.71031 7.87794 3.80701 10.9573 2.50191C14.0908 1.14251 17.5484 0.462708 21.3301 0.462708C25.0578 0.462708 28.4614 1.14251 31.5408 2.50191C34.6203 3.80701 37.0514 5.71031 38.8342 8.21171C40.617 10.7131 41.5089 13.7039 41.5089 17.1842V25.2594C41.5089 28.7396 40.617 31.7576 38.8342 34.3134C37.0514 36.8148 34.6203 38.7453 31.5408 40.1047C28.4614 41.4098 25.0578 42.0624 21.3301 42.0624C17.5484 42.0624 14.0908 41.4098 10.9573 40.1047C7.87794 38.7453 5.44685 36.8148 3.66405 34.3134C1.88115 31.7576 0.989746 28.7396 0.989746 25.2594V17.1842ZM9.09354 24.1174C9.09354 27.7608 10.336 30.3166 12.8212 31.7848C15.3604 33.1987 18.1967 33.9056 21.3301 33.9056C24.3555 33.9056 27.1108 33.1987 29.5959 31.7848C32.0811 30.3166 33.3237 27.7608 33.3237 24.1174V18.3261C33.3237 14.6827 32.0811 12.1541 29.5959 10.7403C27.1648 9.32651 24.4095 8.61951 21.3301 8.61951C18.1967 8.61951 15.3604 9.32651 12.8212 10.7403C10.336 12.1541 9.09354 14.6827 9.09354 18.3261V24.1174ZM25.301 17.1842V25.3409H17.1973V17.1842H25.301Z" fill="white"/>
</svg>
