<svg width="80" height="42" viewBox="0 0 80 42" fill="none" xmlns="http://www.w3.org/2000/svg">
<path d="M38.499 18.2234C38.499 14.58 37.257 12.0514 34.771 10.6375C32.286 9.16928 29.531 8.43518 26.506 8.43518C23.372 8.43518 20.536 9.16928 17.997 10.6375C15.512 12.0514 14.269 14.58 14.269 18.2234V24.0147L6.16498 25.1566V17.0814C6.16498 13.6012 7.05697 10.6104 8.83997 8.10888C10.622 5.55308 13.053 3.62268 16.133 2.31758C19.266 0.958181 22.724 0.278381 26.506 0.278381C30.233 0.278381 33.61 0.958181 36.635 2.31758C39.715 3.62268 42.146 5.55308 43.929 8.10888C45.712 10.6104 46.603 13.6012 46.603 17.0814V41.0624H38.499V18.2234ZM14.269 15.7763V41.0624H6.16498V15.7763H14.269ZM79.018 32.9056V41.0624H70.914V32.9056H79.018ZM70.833 18.2234C70.833 14.58 69.591 12.0514 67.105 10.6375C64.62 9.16928 61.865 8.43518 58.84 8.43518C55.706 8.43518 52.87 9.16928 50.331 10.6375C47.791 12.0514 46.522 14.58 46.522 18.2234V24.0147L38.499 25.1566V17.0814C38.499 13.6012 39.391 10.6104 41.173 8.10888C42.956 5.55308 45.387 3.62268 48.467 2.31758C51.6 0.958181 55.058 0.278381 58.84 0.278381C62.567 0.278381 65.971 0.958181 69.05 2.31758C72.13 3.62268 74.561 5.55308 76.344 8.10888C78.126 10.6104 79.018 13.6012 79.018 17.0814V32.9056H70.833V18.2234ZM8.67698 0.278381V8.43518H0.573975V0.278381H8.67698Z" fill="white"/>
</svg>
